<svg xmlns="http://www.w3.org/2000/svg" viewBox="85.96 250.98 401.18 64.86"> <svg xmlns="http://www.w3.org/2000/svg"
        xmlns:xlink="http://www.w3.org/1999/xlink" version="1.1" id="Layer_1" x="87.95907663952761"
        y="252.98016984064023" viewBox="3.200000047683716 3.500000238418579 89.9000015258789 63.900001525878906"
        xml:space="preserve" height="60.85825048293875" width="88.5943998439678" preserveAspectRatio="xMinYMin"
        enable-background="new 0 0 96.4 70.9" style="overflow: visible;">
        <path class="st373"
            d="M73.7,41.5c1.6,0,4.1,0,5.7,0h10.9c1.6,0,2.8-1.3,2.8-2.8V6.3c0-1.6-1.3-2.8-2.8-2.8H6     c-1.6,0-2.8,1.3-2.8,2.8v32.3c0,1.6,1.3,2.8,2.8,2.8H17c1.6,0,4.1,0,5.7,0H73.7z"
            style="fill: #67976D;" />
        <path class="st73"
            d="M76.7,27.4c2.7,0,4.9-2.2,4.9-4.9c0-2.7-2.2-4.9-4.9-4.9h-57c-2.7,0-4.9,2.2-4.9,4.9c0,2.7,2.2,4.9,4.9,4.9    H76.7z"
            style="fill: #4C644E;" />
        <path class="st374" d="M69.7,22.5v38.7c0,3.4-2.8,6.2-6.2,6.2H32.9c-3.4,0-6.2-2.8-6.2-6.2V22.5"
            style="fill: #78AF7F;" />
        <path class="st30"
            d="M63.5,67.4c-3.4,0-6.2-2.8-6.2-6.2c0-3.4,2.8-6.2,6.2-6.2c3.4,0,6.2,2.8,6.2,6.2      C69.7,64.6,66.9,67.4,63.5,67.4z"
            style="fill: #EEEFEF;" />
        <path class="st30"
            d="M32.9,67.4c-3.4,0-6.2-2.8-6.2-6.2c0-3.4,2.8-6.2,6.2-6.2c3.4,0,6.2,2.8,6.2,6.2      C39.1,64.6,36.3,67.4,32.9,67.4z"
            style="fill: #EEEFEF;" />
        <path class="st10" d="M60.9,22.5c0,7-5.7,12.8-12.8,12.8c-7,0-12.8-5.7-12.8-12.8"
            style="fill: #EEEFEF; fill-opacity: 1;" />
        <path class="st353"
            d="M69.7,41.5h20.6c1.6,0,2.8-1.3,2.8-2.8V6.3c0-1.6-1.3-2.8-2.8-2.8H6c-1.6,0-2.8,1.3-2.8,2.8v32.3     c0,1.6,1.3,2.8,2.8,2.8h20.6"
            style="fill: none; stroke: #EEEFEF; stroke-width: 4; stroke-linejoin: round; stroke-miterlimit: 10;" />
        <path class="st229"
            d="M63.5,67.4c-3.4,0-6.2-2.8-6.2-6.2c0-3.4,2.8-6.2,6.2-6.2c3.4,0,6.2,2.8,6.2,6.2      C69.7,64.6,66.9,67.4,63.5,67.4z"
            style="fill: #4F4E52; stroke: #EEEFEF; stroke-width: 4; stroke-linecap: round; stroke-miterlimit: 10;" />
        <path class="st229"
            d="M32.9,67.4c-3.4,0-6.2-2.8-6.2-6.2c0-3.4,2.8-6.2,6.2-6.2c3.4,0,6.2,2.8,6.2,6.2      C39.1,64.6,36.3,67.4,32.9,67.4z"
            style="fill: #4F4E52; stroke: #EEEFEF; stroke-width: 4; stroke-linecap: round; stroke-miterlimit: 10;" />
        <path class="st352" d="M60.9,22.5c0,7-5.7,12.8-12.8,12.8c-7,0-12.8-5.7-12.8-12.8"
            style="fill: #4F4E52; stroke: #EEEFEF; stroke-width: 4; stroke-miterlimit: 10;" />
        <line class="st352" x1="69.7" y1="22.5" x2="69.7" y2="61.1"
            style="fill: none; stroke: #EEEFEF; stroke-width: 4; stroke-miterlimit: 10;" />
        <line class="st352" x1="26.7" y1="22.5" x2="26.7" y2="61.1"
            style="fill: none; stroke: #EEEFEF; stroke-width: 4; stroke-miterlimit: 10;" />
        <line class="st352" x1="63.5" y1="67.4" x2="32.9" y2="67.4"
            style="fill: none; stroke: #EEEFEF; stroke-width: 4; stroke-miterlimit: 10;" />
        <path class="st353"
            d="M69.7,27.4h6.9c2.7,0,4.9-2.2,4.9-4.9c0-2.7-2.2-4.9-4.9-4.9h-57c-2.7,0-4.9,2.2-4.9,4.9    c0,2.7,2.2,4.9,4.9,4.9h6.9"
            style="fill: none; stroke: #EEEFEF; stroke-width: 4; stroke-linejoin: round; stroke-miterlimit: 10;" />
    </svg> <svg x="191.517" y="299.2"
        viewBox="1.0800000429153442 5.489999771118164 176.5500030517578 14.630001068115234" height="14.630001068115234"
        width="176.5500030517578" style="overflow: visible;">
        <g fill="#ffffff" fill-opacity="1" style="">
            <path
                d="M5.66 20.08Q4.35 20.08 3.32 19.62Q2.28 19.15 1.69 18.33Q1.10 17.50 1.08 16.42L1.08 16.42L2.93 16.42Q3.02 17.35 3.70 17.98Q4.37 18.62 5.66 18.62L5.66 18.62Q6.90 18.62 7.61 18.00Q8.32 17.38 8.32 16.42L8.32 16.42Q8.32 15.66 7.90 15.18Q7.49 14.71 6.86 14.46Q6.23 14.21 5.17 13.93L5.17 13.93Q3.86 13.58 3.07 13.24Q2.28 12.90 1.72 12.17Q1.16 11.44 1.16 10.20L1.16 10.20Q1.16 9.12 1.71 8.28Q2.26 7.45 3.26 6.99Q4.26 6.54 5.55 6.54L5.55 6.54Q7.41 6.54 8.60 7.47Q9.79 8.40 9.94 9.94L9.94 9.94L8.04 9.94Q7.94 9.18 7.24 8.60Q6.54 8.02 5.38 8.02L5.38 8.02Q4.29 8.02 3.61 8.58Q2.93 9.14 2.93 10.15L2.93 10.15Q2.93 10.87 3.33 11.32Q3.74 11.78 4.34 12.02Q4.94 12.25 6.02 12.56L6.02 12.56Q7.33 12.92 8.13 13.27Q8.93 13.62 9.50 14.35Q10.07 15.09 10.07 16.34L10.07 16.34Q10.07 17.31 9.56 18.16Q9.04 19.02 8.04 19.55Q7.03 20.08 5.66 20.08L5.66 20.08ZM22.12 14.34Q22.12 14.84 22.06 15.39L22.06 15.39L13.74 15.39Q13.83 16.93 14.79 17.79Q15.75 18.66 17.12 18.66L17.12 18.66Q18.24 18.66 18.99 18.14Q19.74 17.61 20.05 16.74L20.05 16.74L21.91 16.74Q21.49 18.24 20.23 19.18Q18.98 20.12 17.12 20.12L17.12 20.12Q15.64 20.12 14.47 19.46Q13.30 18.79 12.63 17.57Q11.97 16.34 11.97 14.72L11.97 14.72Q11.97 13.11 12.62 11.89Q13.26 10.68 14.43 10.02Q15.60 9.37 17.12 9.37L17.12 9.37Q18.60 9.37 19.74 10.01Q20.88 10.66 21.50 11.79Q22.12 12.92 22.12 14.34L22.12 14.34ZM20.33 13.98Q20.33 13.00 19.89 12.28Q19.46 11.57 18.71 11.20Q17.95 10.83 17.04 10.83L17.04 10.83Q15.73 10.83 14.81 11.67Q13.89 12.50 13.76 13.98L13.76 13.98L20.33 13.98ZM23.75 14.72Q23.75 13.11 24.40 11.90Q25.04 10.70 26.19 10.03Q27.34 9.37 28.82 9.37L28.82 9.37Q30.74 9.37 31.99 10.30Q33.23 11.23 33.63 12.88L33.63 12.88L31.77 12.88Q31.50 11.93 30.73 11.38Q29.96 10.83 28.82 10.83L28.82 10.83Q27.34 10.83 26.43 11.85Q25.52 12.86 25.52 14.72L25.52 14.72Q25.52 16.61 26.43 17.63Q27.34 18.66 28.82 18.66L28.82 18.66Q29.96 18.66 30.72 18.13Q31.48 17.59 31.77 16.61L31.77 16.61L33.63 16.61Q33.21 18.20 31.96 19.16Q30.70 20.12 28.82 20.12L28.82 20.12Q27.34 20.12 26.19 19.46Q25.04 18.79 24.40 17.57Q23.75 16.36 23.75 14.72L23.75 14.72ZM43.43 9.54L45.16 9.54L45.16 19.95L43.43 19.95L43.43 18.41Q42.94 19.21 42.06 19.66Q41.17 20.10 40.11 20.10L40.11 20.10Q38.89 20.10 37.92 19.60Q36.95 19.09 36.39 18.09Q35.83 17.08 35.83 15.64L35.83 15.64L35.83 9.54L37.54 9.54L37.54 15.41Q37.54 16.95 38.32 17.77Q39.10 18.60 40.45 18.60L40.45 18.60Q41.84 18.60 42.64 17.75Q43.43 16.89 43.43 15.26L43.43 15.26L43.43 9.54ZM49.82 11.23Q50.27 10.34 51.12 9.84Q51.97 9.35 53.18 9.35L53.18 9.35L53.18 11.13L52.73 11.13Q49.82 11.13 49.82 14.29L49.82 14.29L49.82 19.95L48.09 19.95L48.09 9.54L49.82 9.54L49.82 11.23ZM64.68 14.34Q64.68 14.84 64.62 15.39L64.62 15.39L56.30 15.39Q56.39 16.93 57.35 17.79Q58.31 18.66 59.68 18.66L59.68 18.66Q60.80 18.66 61.55 18.14Q62.30 17.61 62.61 16.74L62.61 16.74L64.47 16.74Q64.05 18.24 62.80 19.18Q61.54 20.12 59.68 20.12L59.68 20.12Q58.20 20.12 57.03 19.46Q55.86 18.79 55.20 17.57Q54.53 16.34 54.53 14.72L54.53 14.72Q54.53 13.11 55.18 11.89Q55.82 10.68 56.99 10.02Q58.16 9.37 59.68 9.37L59.68 9.37Q61.16 9.37 62.30 10.01Q63.44 10.66 64.06 11.79Q64.68 12.92 64.68 14.34L64.68 14.34ZM62.89 13.98Q62.89 13.00 62.45 12.28Q62.02 11.57 61.27 11.20Q60.52 10.83 59.60 10.83L59.60 10.83Q58.29 10.83 57.37 11.67Q56.45 12.50 56.32 13.98L56.32 13.98L62.89 13.98ZM71.38 14.71Q71.38 13.11 72.03 11.90Q72.67 10.70 73.81 10.03Q74.94 9.37 76.32 9.37L76.32 9.37Q77.69 9.37 78.70 9.96Q79.70 10.54 80.20 11.44L80.20 11.44L80.20 9.54L81.95 9.54L81.95 19.95L80.20 19.95L80.20 18.01Q79.69 18.92 78.67 19.52Q77.65 20.12 76.30 20.12L76.30 20.12Q74.92 20.12 73.80 19.44Q72.67 18.75 72.03 17.52Q71.38 16.28 71.38 14.71L71.38 14.71ZM80.20 14.72Q80.20 13.55 79.72 12.67Q79.25 11.80 78.44 11.33Q77.63 10.87 76.67 10.87L76.67 10.87Q75.70 10.87 74.90 11.32Q74.10 11.78 73.63 12.65Q73.15 13.53 73.15 14.71L73.15 14.71Q73.15 15.90 73.63 16.79Q74.10 17.67 74.90 18.14Q75.70 18.60 76.67 18.60L76.67 18.60Q77.63 18.60 78.44 18.14Q79.25 17.67 79.72 16.79Q80.20 15.90 80.20 14.72L80.20 14.72ZM89.95 9.35Q91.85 9.35 93.02 10.50Q94.20 11.65 94.20 13.81L94.20 13.81L94.20 19.95L92.49 19.95L92.49 14.06Q92.49 12.50 91.71 11.68Q90.93 10.85 89.58 10.85L89.58 10.85Q88.22 10.85 87.41 11.70Q86.60 12.56 86.60 14.19L86.60 14.19L86.60 19.95L84.87 19.95L84.87 9.54L86.60 9.54L86.60 11.02Q87.11 10.22 88.00 9.79Q88.88 9.35 89.95 9.35L89.95 9.35ZM96.39 14.71Q96.39 13.11 97.03 11.90Q97.68 10.70 98.81 10.03Q99.94 9.37 101.35 9.37L101.35 9.37Q102.56 9.37 103.61 9.93Q104.65 10.49 105.20 11.40L105.20 11.40L105.20 5.89L106.95 5.89L106.95 19.95L105.20 19.95L105.20 17.99Q104.69 18.92 103.68 19.52Q102.68 20.12 101.33 20.12L101.33 20.12Q99.94 20.12 98.81 19.44Q97.68 18.75 97.03 17.52Q96.39 16.28 96.39 14.71L96.39 14.71ZM105.20 14.72Q105.20 13.55 104.73 12.67Q104.25 11.80 103.45 11.33Q102.64 10.87 101.67 10.87L101.67 10.87Q100.70 10.87 99.90 11.32Q99.10 11.78 98.63 12.65Q98.15 13.53 98.15 14.71L98.15 14.71Q98.15 15.90 98.63 16.79Q99.10 17.67 99.90 18.14Q100.70 18.60 101.67 18.60L101.67 18.60Q102.64 18.60 103.45 18.14Q104.25 17.67 104.73 16.79Q105.20 15.90 105.20 14.72L105.20 14.72ZM123.80 10.58Q123.80 12.24 122.67 13.33Q121.54 14.42 119.22 14.42L119.22 14.42L116.68 14.42L116.68 19.95L114.95 19.95L114.95 6.71L119.22 6.71Q121.47 6.71 122.64 7.79Q123.80 8.87 123.80 10.58L123.80 10.58ZM119.22 13.00Q120.67 13.00 121.35 12.37Q122.04 11.74 122.04 10.58L122.04 10.58Q122.04 8.13 119.22 8.13L119.22 8.13L116.68 8.13L116.68 13.00L119.22 13.00ZM127.68 11.23Q128.14 10.34 128.98 9.84Q129.83 9.35 131.04 9.35L131.04 9.35L131.04 11.13L130.59 11.13Q127.68 11.13 127.68 14.29L127.68 14.29L127.68 19.95L125.95 19.95L125.95 9.54L127.68 9.54L127.68 11.23ZM133.93 7.85Q133.44 7.85 133.09 7.50Q132.75 7.16 132.75 6.67L132.75 6.67Q132.75 6.17 133.09 5.83Q133.44 5.49 133.93 5.49L133.93 5.49Q134.41 5.49 134.74 5.83Q135.07 6.17 135.07 6.67L135.07 6.67Q135.07 7.16 134.74 7.50Q134.41 7.85 133.93 7.85L133.93 7.85ZM133.04 9.54L134.77 9.54L134.77 19.95L133.04 19.95L133.04 9.54ZM138.34 9.54L141.59 18.35L144.82 9.54L146.66 9.54L142.58 19.95L140.56 19.95L136.48 9.54L138.34 9.54ZM147.72 14.71Q147.72 13.11 148.37 11.90Q149.02 10.70 150.15 10.03Q151.28 9.37 152.66 9.37L152.66 9.37Q154.03 9.37 155.04 9.96Q156.05 10.54 156.54 11.44L156.54 11.44L156.54 9.54L158.29 9.54L158.29 19.95L156.54 19.95L156.54 18.01Q156.03 18.92 155.01 19.52Q153.99 20.12 152.65 20.12L152.65 20.12Q151.26 20.12 150.14 19.44Q149.02 18.75 148.37 17.52Q147.72 16.28 147.72 14.71L147.72 14.71ZM156.54 14.72Q156.54 13.55 156.07 12.67Q155.59 11.80 154.78 11.33Q153.98 10.87 153.01 10.87L153.01 10.87Q152.04 10.87 151.24 11.32Q150.44 11.78 149.97 12.65Q149.49 13.53 149.49 14.71L149.49 14.71Q149.49 15.90 149.97 16.79Q150.44 17.67 151.24 18.14Q152.04 18.60 153.01 18.60L153.01 18.60Q153.98 18.60 154.78 18.14Q155.59 17.67 156.07 16.79Q156.54 15.90 156.54 14.72L156.54 14.72ZM166.04 10.96L163.32 10.96L163.32 17.10Q163.32 17.86 163.65 18.17Q163.97 18.49 164.77 18.49L164.77 18.49L166.04 18.49L166.04 19.95L164.48 19.95Q163.04 19.95 162.32 19.29Q161.59 18.62 161.59 17.10L161.59 17.10L161.59 10.96L160.25 10.96L160.25 9.54L161.59 9.54L161.59 6.92L163.32 6.92L163.32 9.54L166.04 9.54L166.04 10.96ZM177.63 14.34Q177.63 14.84 177.57 15.39L177.57 15.39L169.25 15.39Q169.35 16.93 170.31 17.79Q171.27 18.66 172.63 18.66L172.63 18.66Q173.75 18.66 174.51 18.14Q175.26 17.61 175.56 16.74L175.56 16.74L177.42 16.74Q177.00 18.24 175.75 19.18Q174.50 20.12 172.63 20.12L172.63 20.12Q171.15 20.12 169.98 19.46Q168.81 18.79 168.15 17.57Q167.48 16.34 167.48 14.72L167.48 14.72Q167.48 13.11 168.13 11.89Q168.78 10.68 169.95 10.02Q171.11 9.37 172.63 9.37L172.63 9.37Q174.12 9.37 175.26 10.01Q176.40 10.66 177.01 11.79Q177.63 12.92 177.63 14.34L177.63 14.34ZM175.84 13.98Q175.84 13.00 175.41 12.28Q174.97 11.57 174.22 11.20Q173.47 10.83 172.56 10.83L172.56 10.83Q171.25 10.83 170.33 11.67Q169.40 12.50 169.27 13.98L169.27 13.98L175.84 13.98Z"
                transform="translate(0, 0)" />
        </g>
    </svg> <svg x="191.517" y="252.967" viewBox="3.380000114440918 15.1899995803833 295.6199951171875 49.20000076293945"
        height="49.20000076293945" width="295.6199951171875" style="overflow: visible;">
        <g fill="#ffffff" fill-opacity="1" style="">
            <path
                d="M10.24 17.25L10.24 46.01L21.51 46.01L21.51 51.45L3.38 51.45L3.38 17.25L10.24 17.25ZM37.93 51.89Q34.01 51.89 30.87 50.15Q27.73 48.41 25.95 45.23Q24.16 42.04 24.16 37.88L24.16 37.88Q24.16 33.71 25.99 30.53Q27.83 27.34 31.02 25.60Q34.20 23.86 38.12 23.86L38.12 23.86Q42.04 23.86 45.23 25.60Q48.41 27.34 50.25 30.53Q52.09 33.71 52.09 37.88L52.09 37.88Q52.09 42.04 50.20 45.23Q48.31 48.41 45.10 50.15Q41.89 51.89 37.93 51.89L37.93 51.89ZM37.93 45.91Q39.79 45.91 41.43 45.01Q43.07 44.10 44.05 42.29Q45.03 40.47 45.03 37.88L45.03 37.88Q45.03 34.01 43.00 31.92Q40.96 29.84 38.02 29.84L38.02 29.84Q35.08 29.84 33.10 31.92Q31.12 34.01 31.12 37.88L31.12 37.88Q31.12 41.75 33.05 43.83Q34.99 45.91 37.93 45.91L37.93 45.91ZM55.37 37.88Q55.37 33.66 57.09 30.50Q58.80 27.34 61.84 25.60Q64.88 23.86 68.80 23.86L68.80 23.86Q73.84 23.86 77.15 26.39Q80.46 28.91 81.59 33.47L81.59 33.47L74.19 33.47Q73.60 31.70 72.20 30.70Q70.81 29.69 68.75 29.69L68.75 29.69Q65.81 29.69 64.09 31.83Q62.38 33.96 62.38 37.88L62.38 37.88Q62.38 41.75 64.09 43.88Q65.81 46.01 68.75 46.01L68.75 46.01Q72.91 46.01 74.19 42.29L74.19 42.29L81.59 42.29Q80.46 46.70 77.13 49.29Q73.79 51.89 68.80 51.89L68.80 51.89Q64.88 51.89 61.84 50.15Q58.80 48.41 57.09 45.25Q55.37 42.09 55.37 37.88L55.37 37.88ZM84.87 37.78Q84.87 33.66 86.51 30.48Q88.15 27.29 90.97 25.58Q93.79 23.86 97.27 23.86L97.27 23.86Q100.30 23.86 102.58 25.09Q104.86 26.31 106.23 28.18L106.23 28.18L106.23 24.30L113.14 24.30L113.14 51.45L106.23 51.45L106.23 47.48Q104.91 49.39 102.58 50.64Q100.25 51.89 97.22 51.89L97.22 51.89Q93.79 51.89 90.97 50.13Q88.15 48.36 86.51 45.15Q84.87 41.94 84.87 37.78L84.87 37.78ZM106.23 37.88Q106.23 35.38 105.25 33.59Q104.27 31.80 102.61 30.85Q100.94 29.89 99.03 29.89L99.03 29.89Q97.12 29.89 95.50 30.82Q93.88 31.75 92.88 33.54Q91.88 35.33 91.88 37.78L91.88 37.78Q91.88 40.23 92.88 42.07Q93.88 43.90 95.53 44.88Q97.17 45.86 99.03 45.86L99.03 45.86Q100.94 45.86 102.61 44.91Q104.27 43.95 105.25 42.16Q106.23 40.38 106.23 37.88L106.23 37.88ZM119.85 15.19L126.71 15.19L126.71 51.45L119.85 51.45L119.85 15.19ZM131.81 34.30Q131.81 29.25 134.09 25.26Q136.37 21.27 140.31 19.04Q144.26 16.81 149.16 16.81L149.16 16.81Q154.89 16.81 159.20 19.75Q163.51 22.69 165.23 27.88L165.23 27.88L157.34 27.88Q156.16 25.43 154.03 24.21Q151.90 22.98 149.11 22.98L149.11 22.98Q146.12 22.98 143.79 24.38Q141.46 25.77 140.16 28.32Q138.87 30.87 138.87 34.30L138.87 34.30Q138.87 37.68 140.16 40.25Q141.46 42.83 143.79 44.22Q146.12 45.62 149.11 45.62L149.11 45.62Q151.90 45.62 154.03 44.37Q156.16 43.12 157.34 40.67L157.34 40.67L165.23 40.67Q163.51 45.91 159.23 48.83Q154.94 51.74 149.16 51.74L149.16 51.74Q144.26 51.74 140.31 49.51Q136.37 47.29 134.09 43.32Q131.81 39.35 131.81 34.30L131.81 34.30ZM177.97 28.52Q179.29 26.36 181.42 25.14Q183.55 23.91 186.30 23.91L186.30 23.91L186.30 31.12L184.49 31.12Q181.25 31.12 179.61 32.63Q177.97 34.15 177.97 37.93L177.97 37.93L177.97 51.45L171.11 51.45L171.11 24.30L177.97 24.30L177.97 28.52ZM209.57 24.30L216.87 24.30L200.07 64.29L192.77 64.29L198.65 50.76L187.77 24.30L195.46 24.30L202.47 43.27L209.57 24.30ZM227.41 28.22Q228.73 26.36 231.06 25.11Q233.39 23.86 236.38 23.86L236.38 23.86Q239.86 23.86 242.67 25.58Q245.49 27.29 247.13 30.45Q248.77 33.61 248.77 37.78L248.77 37.78Q248.77 41.94 247.13 45.15Q245.49 48.36 242.67 50.13Q239.86 51.89 236.38 51.89L236.38 51.89Q233.39 51.89 231.11 50.67Q228.83 49.44 227.41 47.58L227.41 47.58L227.41 64.39L220.55 64.39L220.55 24.30L227.41 24.30L227.41 28.22ZM241.77 37.78Q241.77 35.33 240.76 33.54Q239.76 31.75 238.12 30.82Q236.47 29.89 234.56 29.89L234.56 29.89Q232.70 29.89 231.06 30.85Q229.42 31.80 228.41 33.61Q227.41 35.43 227.41 37.88L227.41 37.88Q227.41 40.33 228.41 42.14Q229.42 43.95 231.06 44.91Q232.70 45.86 234.56 45.86L234.56 45.86Q236.47 45.86 238.12 44.88Q239.76 43.90 240.76 42.09Q241.77 40.28 241.77 37.78L241.77 37.78ZM267.83 29.94L261.76 29.94L261.76 43.07Q261.76 44.44 262.42 45.06Q263.08 45.67 264.65 45.67L264.65 45.67L267.83 45.67L267.83 51.45L263.52 51.45Q254.85 51.45 254.85 43.02L254.85 43.02L254.85 29.94L251.62 29.94L251.62 24.30L254.85 24.30L254.85 17.59L261.76 17.59L261.76 24.30L267.83 24.30L267.83 29.94ZM284.84 51.89Q280.92 51.89 277.78 50.15Q274.65 48.41 272.86 45.23Q271.07 42.04 271.07 37.88L271.07 37.88Q271.07 33.71 272.91 30.53Q274.74 27.34 277.93 25.60Q281.11 23.86 285.03 23.86L285.03 23.86Q288.95 23.86 292.14 25.60Q295.32 27.34 297.16 30.53Q299.00 33.71 299.00 37.88L299.00 37.88Q299.00 42.04 297.11 45.23Q295.23 48.41 292.02 50.15Q288.81 51.89 284.84 51.89L284.84 51.89ZM284.84 45.91Q286.70 45.91 288.34 45.01Q289.98 44.10 290.96 42.29Q291.94 40.47 291.94 37.88L291.94 37.88Q291.94 34.01 289.91 31.92Q287.88 29.84 284.94 29.84L284.94 29.84Q282.00 29.84 280.01 31.92Q278.03 34.01 278.03 37.88L278.03 37.88Q278.03 41.75 279.96 43.83Q281.90 45.91 284.84 45.91L284.84 45.91Z"
                transform="translate(0, 0)" />
        </g>
    </svg></svg>